# xmcd CD database file
#
# Track frame offsets:
#	150
#	11797
#	25807
#	38233
#	58925
#	71719
#	83542
#	98013
#	111429
#	122861
#	136518
#	157331
#	170591
#	180699
#	189836
#	205282
#	217895
#	231635
#
# Disc length: 3257 seconds
#
# Revision: 0
# Processed by: cddbd v1.5.1PL0 Copyright (c) Steve Scherf et al.
# Submitted via: CDex 1.51
#
DISCID=010cb712
DTITLE=Michael Klostermann und seine Musikanten - Das Beste CD 1
DYEAR=1900
DGENRE=Volksmusik
TTITLE0=Klostermanns Meistertrommler
TTITLE1=Aus Boehmen kommt die Musik
TTITLE2=Donauwellen
TTITLE3=Dankeschoen Hubert Wolf
TTITLE4=Wie in alten Zeiten
TTITLE5=Drei weisse Birken
TTITLE6=Herz Schmerz
TTITLE7=Rauschende Birken
TTITLE8=Akrobatik
TTITLE9=Das Musikantentrio
TTITLE10=Boehmische Klarinetten
TTITLE11=Komm mit mir ins Land der Traeume
TTITLE12=Hallo ihr lieben Freunde
TTITLE13=Zillertaler Hochzeitsmarsch
TTITLE14=Liebespaerchen
TTITLE15=Loeffel Polka
TTITLE16=Deutschland deine Lieder
TTITLE17=Egerlaender Marsch
EXTD=
EXTT0=
EXTT1=
EXTT2=
EXTT3=
EXTT4=
EXTT5=
EXTT6=
EXTT7=
EXTT8=
EXTT9=
EXTT10=
EXTT11=
EXTT12=
EXTT13=
EXTT14=
EXTT15=
EXTT16=
EXTT17=
PLAYORDER=
